<?xml version="1.0" encoding="UTF-8" standalone="no"?> <svg width="64" height="64" viewBox="0 0 64 64" fill="none" xmlns="http://www.w3.org/2000/svg">
<path d="M32 62C26.0666 62 20.2664 60.2405 15.3329 56.9441C10.3994 53.6477 6.55426 48.9623 4.28363 43.4805C2.013 37.9987 1.4189 31.9667 2.57646 26.1473C3.73401 20.3279 6.59123 14.9824 10.7868 10.7868C14.9824 6.59123 20.3279 3.73401 26.1473 2.57646C31.9667 1.4189 37.9987 2.013 43.4805 4.28363C48.9623 6.55426 53.6477 10.3994 56.9441 15.3329C60.2405 20.2664 62 26.0666 62 32C61.991 39.9537 58.8274 47.5791 53.2033 53.2033C47.5791 58.8274 39.9537 61.991 32 62V62ZM32 4.00001C26.4621 4.00001 21.0486 5.64218 16.444 8.71886C11.8395 11.7955 8.25064 16.1685 6.13139 21.2849C4.01213 26.4012 3.45764 32.0311 4.53803 37.4625C5.61841 42.894 8.28515 47.8831 12.201 51.799C16.1169 55.7149 21.106 58.3816 26.5375 59.462C31.969 60.5424 37.5988 59.9879 42.7152 57.8686C47.8315 55.7494 52.2045 52.1606 55.2812 47.556C58.3578 42.9514 60 37.5379 60 32C59.9915 24.5766 57.0388 17.4596 51.7896 12.2104C46.5405 6.96119 39.4235 4.00848 32 4.00001V4.00001Z" fill="black"/>
<path d="M32 58C26.8577 58 21.8309 56.4751 17.5552 53.6182C13.2795 50.7613 9.94702 46.7007 7.97914 41.9498C6.01127 37.1989 5.49638 31.9712 6.49959 26.9277C7.50281 21.8842 9.97907 17.2514 13.6152 13.6152C17.2514 9.97907 21.8842 7.50281 26.9277 6.49959C31.9712 5.49638 37.1989 6.01127 41.9498 7.97914C46.7007 9.94702 50.7613 13.2795 53.6182 17.5552C56.4751 21.8309 58 26.8577 58 32C57.9921 38.8932 55.2502 45.5018 50.376 50.376C45.5018 55.2502 38.8932 57.9921 32 58ZM32 8.00001C27.2533 8.00001 22.6131 9.40759 18.6663 12.0447C14.7195 14.6819 11.6434 18.4302 9.8269 22.8156C8.0104 27.201 7.53512 32.0266 8.46116 36.6822C9.38721 41.3377 11.673 45.6141 15.0294 48.9706C18.3859 52.327 22.6623 54.6128 27.3178 55.5389C31.9734 56.4649 36.799 55.9896 41.1844 54.1731C45.5698 52.3566 49.3181 49.2805 51.9553 45.3337C54.5924 41.3869 56 36.7468 56 32C55.9926 25.6371 53.4617 19.5369 48.9624 15.0376C44.4631 10.5384 38.3629 8.00742 32 8.00001V8.00001Z" fill="black"/>
<path d="M41 45H18C17.81 44.9999 17.6239 44.9457 17.4636 44.8437C17.3033 44.7417 17.1754 44.5962 17.0948 44.4241C17.0142 44.252 16.9843 44.0605 17.0086 43.8721C17.0329 43.6836 17.1104 43.506 17.232 43.36L22.232 37.36C22.3258 37.2474 22.4432 37.1568 22.576 37.0945C22.7087 37.0323 22.8534 37.0001 23 37H46C46.1901 36.9999 46.3763 37.0539 46.5368 37.1559C46.6973 37.2578 46.8253 37.4033 46.9061 37.5755C46.9868 37.7476 47.0167 37.9391 46.9925 38.1277C46.9682 38.3162 46.8907 38.4939 46.769 38.64L41.769 44.64C41.6751 44.7528 41.5575 44.8435 41.4246 44.9057C41.2917 44.9679 41.1468 45.0001 41 45ZM20.135 43H40.535L43.869 39H23.469L20.135 43Z" fill="black"/>
<path d="M46 36H23C22.8534 35.9999 22.7087 35.9677 22.576 35.9055C22.4432 35.8432 22.3258 35.7526 22.232 35.64L17.232 29.64C17.1104 29.494 17.0329 29.3164 17.0086 29.1279C16.9843 28.9395 17.0142 28.748 17.0948 28.5759C17.1754 28.4038 17.3033 28.2583 17.4636 28.1563C17.6239 28.0543 17.81 28.0001 18 28H41C41.1468 27.9999 41.2917 28.0321 41.4246 28.0943C41.5575 28.1565 41.6751 28.2472 41.769 28.36L46.769 34.36C46.8907 34.5061 46.9682 34.6838 46.9925 34.8723C47.0167 35.0609 46.9868 35.2524 46.9061 35.4245C46.8253 35.5967 46.6973 35.7422 46.5368 35.8441C46.3763 35.9461 46.1901 36.0001 46 36ZM23.468 34H43.868L40.534 30H20.134L23.468 34Z" fill="black"/>
<path d="M41 27H18C17.81 26.9999 17.6239 26.9457 17.4636 26.8437C17.3033 26.7417 17.1754 26.5962 17.0948 26.4241C17.0142 26.252 16.9843 26.0605 17.0086 25.8721C17.0329 25.6836 17.1104 25.506 17.232 25.36L22.232 19.36C22.3258 19.2474 22.4432 19.1568 22.576 19.0945C22.7087 19.0323 22.8534 19.0001 23 19H46C46.1901 18.9999 46.3763 19.0539 46.5368 19.1559C46.6973 19.2578 46.8253 19.4033 46.9061 19.5755C46.9868 19.7476 47.0167 19.9391 46.9925 20.1277C46.9682 20.3162 46.8907 20.4939 46.769 20.64L41.769 26.64C41.6751 26.7528 41.5575 26.8435 41.4246 26.9057C41.2917 26.9679 41.1468 27.0001 41 27ZM20.135 25H40.535L43.869 21H23.469L20.135 25Z" fill="black"/>
</svg>
